<?xml version="1.0" encoding="UTF-8"?>
<svg id="Layer_2" data-name="Layer 2" xmlns="http://www.w3.org/2000/svg" viewBox="0 0 505.11 505.11">
  <defs>
    <style>
      .cls-1 {
        fill: #000;
      }

      .cls-1, .cls-2 {
        stroke-width: 0px;
      }

      .cls-2 {
        fill: #fff;
      }
    </style>
  </defs>
  <g id="Layer_1-2" data-name="Layer 1">
    <g>
      <path class="cls-2" d="M505.11,505.11H0V0h505.11v505.11ZM236.26,100.51c0,5.33.32,10.08-.14,14.75-.22,2.26-1.36,5.07-3.05,6.45-22.41,18.22-44.87,36.38-67.55,54.26-20.69,16.31-33.48,36.59-34.08,63.63-.04,1.84-2.04,4.38-3.81,5.32-17.08,9.07-34.46,17.56-51.43,26.83-13.85,7.56-23.63,18.92-26.61,34.8-1.53,8.18-2.2,16.62-2.26,24.95-.25,33.49-.15,66.98-.06,100.47.01,5.07.38,10.17.98,15.21,2.02,16.82,13.05,28.09,29.91,30.43,5.5.76,11.11,1.06,16.67,1.09,38.39.21,76.79.38,115.18.39,35.11.01,70.22-.21,105.34-.27,27.73-.05,55.46.01,83.19-.02,6.89,0,13.8.03,20.67-.34,20.59-1.08,32.86-10.99,36.25-29.53,1-5.45,1.26-11.1,1.28-16.66.12-32.01.12-64.02.03-96.04-.02-7.05-.36-14.11-.93-21.14-1.39-17.03-8.82-30.71-23.17-40.31-3.81-2.55-7.71-5.02-11.77-7.13-13.97-7.24-27.91-14.57-42.13-21.27-4.92-2.32-6.39-5.22-6.75-10.39-.48-6.81-1.8-13.67-3.69-20.24-4.89-17.01-16.66-29.12-29.97-39.87-22.34-18.04-44.82-35.92-67.19-53.92-1.32-1.06-3.11-2.55-3.2-3.94-.36-5.66-.15-11.35-.15-17.53,9.44,0,18.28.21,27.1-.06,8.17-.25,14.44-6.75,14.9-14.87.43-7.43-5-14.6-12.59-15.94-3.84-.68-7.83-.51-11.76-.57-5.82-.08-11.64-.02-17.69-.02,0-9.35.16-17.87-.04-26.39-.22-9.28-7.61-15.9-16.81-15.4-8.17.44-14.46,7.03-14.61,15.63-.15,8.63-.03,17.27-.03,26.16-8.58,0-16.46-.19-24.31.09-3.19.11-6.62.7-9.47,2.05-6.27,2.98-9.31,10.21-7.81,17.01,1.57,7.11,7.26,12.09,14.65,12.27,8.81.21,17.63.05,26.93.05Z"/>
      <path class="cls-1" d="M236.26,100.51c-9.3,0-18.12.16-26.93-.05-7.4-.18-13.08-5.16-14.65-12.27-1.5-6.8,1.54-14.03,7.81-17.01,2.85-1.35,6.27-1.93,9.47-2.05,7.86-.28,15.73-.09,24.31-.09,0-8.89-.11-17.53.03-26.16.15-8.59,6.44-15.19,14.61-15.63,9.2-.5,16.6,6.12,16.81,15.4.2,8.52.04,17.04.04,26.39,6.06,0,11.88-.06,17.69.02,3.93.06,7.92-.11,11.76.57,7.59,1.34,13.02,8.51,12.59,15.94-.47,8.11-6.74,14.62-14.9,14.87-8.82.27-17.66.06-27.1.06,0,6.17-.21,11.87.15,17.53.09,1.39,1.89,2.88,3.2,3.94,22.37,18,44.85,35.88,67.19,53.92,13.31,10.75,25.09,22.85,29.97,39.87,1.89,6.57,3.21,13.43,3.69,20.24.36,5.17,1.83,8.08,6.75,10.39,14.23,6.7,28.16,14.03,42.13,21.27,4.06,2.11,7.96,4.58,11.77,7.13,14.36,9.59,21.78,23.28,23.17,40.31.57,7.03.91,14.09.93,21.14.09,32.01.09,64.02-.03,96.04-.02,5.56-.29,11.21-1.28,16.66-3.39,18.54-15.65,28.45-36.25,29.53-6.88.36-13.78.33-20.67.34-27.73.03-55.46-.02-83.19.02-35.11.06-70.22.28-105.34.27-38.39-.02-76.79-.18-115.18-.39-5.56-.03-11.17-.33-16.67-1.09-16.87-2.34-27.89-13.61-29.91-30.43-.61-5.04-.97-10.14-.98-15.21-.08-33.49-.18-66.98.06-100.47.06-8.33.73-16.77,2.26-24.95,2.98-15.88,12.76-27.23,26.61-34.8,16.96-9.27,34.35-17.76,51.43-26.83,1.77-.94,3.77-3.48,3.81-5.32.61-27.04,13.39-47.32,34.08-63.63,22.68-17.87,45.15-36.03,67.55-54.26,1.69-1.37,2.83-4.19,3.05-6.45.46-4.67.14-9.42.14-14.75ZM252.21,146.98c-13.58,10.86-26.72,21.2-39.67,31.76-12.45,10.16-24.89,20.34-36.98,30.91-6.61,5.77-10.63,13.45-11.43,22.28-.85,9.29-1.39,18.63-1.41,27.96-.12,60.56-.06,121.12-.06,181.69v5.43h31.51c0-2.02,0-3.78,0-5.53,0-20.68-.17-41.36.04-62.04.36-35.53,30.01-61.67,65.08-57.59,28.77,3.34,50.31,27.89,50.56,57.91.17,20.68.04,41.36.04,62.04,0,1.72,0,3.45,0,5.13h31.51v-6.16c0-40.7,0-81.41,0-122.11,0-23.63-.09-47.25-.05-70.88.03-16.36-3.29-31.29-16.87-42.24-23.99-19.36-47.92-38.82-72.27-58.55ZM130.87,278.41c-13.2,6.92-25.79,13.47-38.33,20.12-8.35,4.43-12.99,11.24-13.15,20.91-.07,4.26-.63,8.51-.63,12.77-.06,33.14-.04,66.28-.02,99.42,0,2.95.42,5.9.38,8.84-.08,4.91,2.56,6.52,7.04,6.52,14.43.01,28.86.13,43.29.18.43,0,.87-.33,1.41-.55v-168.21ZM373.2,447.12c13.79,0,27.21.12,40.62-.04,10.89-.13,11.33-.44,11.36-11.41.12-36.43.04-72.86-.04-109.29,0-3.6-.46-7.21-.94-10.78-.76-5.57-2.84-10.76-7.83-13.63-14-8.06-28.21-15.74-43.17-24.02v169.17ZM278.36,446.99v-5.32c0-18.85.01-37.69-.01-56.54,0-2.95.07-5.92-.3-8.83-1.74-13.66-12.6-23.45-25.91-23.54-13.25-.09-25.38,9.68-25.91,23.3-.91,23.38-.26,46.82-.26,70.23,0,.13.18.27.49.69h51.91Z"/>
      <path class="cls-2" d="M252.21,146.98c24.35,19.74,48.27,39.19,72.27,58.55,13.57,10.95,16.89,25.88,16.87,42.24-.04,23.63.04,47.25.05,70.88.01,40.7,0,81.41,0,122.11v6.16h-31.51c0-1.68,0-3.4,0-5.13,0-20.68.13-41.36-.04-62.04-.25-30.02-21.79-54.57-50.56-57.91-35.07-4.07-64.72,22.06-65.08,57.59-.21,20.68-.04,41.36-.04,62.04,0,1.76,0,3.51,0,5.53h-31.51v-5.43c0-60.56-.06-121.12.06-181.69.02-9.32.57-18.67,1.41-27.96.8-8.83,4.82-16.51,11.43-22.28,12.1-10.57,24.53-20.75,36.98-30.91,12.95-10.56,26.09-20.9,39.67-31.76ZM231.1,232.1c.05,11.63,9.37,20.88,21,20.87,11.61,0,20.96-9.3,21.02-20.9.07-11.76-9.58-21.35-21.3-21.16-11.63.18-20.78,9.54-20.72,21.19Z"/>
      <path class="cls-2" d="M130.87,278.41v168.21c-.55.22-.98.56-1.41.55-14.43-.05-28.86-.17-43.29-.18-4.48,0-7.12-1.62-7.04-6.52.05-2.94-.38-5.89-.38-8.84-.03-33.14-.04-66.28.02-99.42,0-4.26.57-8.51.63-12.77.15-9.67,4.79-16.48,13.15-20.91,12.54-6.65,25.13-13.2,38.33-20.12Z"/>
      <path class="cls-2" d="M373.2,447.12v-169.17c14.96,8.29,29.17,15.97,43.17,24.02,4.99,2.87,7.07,8.06,7.83,13.63.49,3.57.94,7.18.94,10.78.08,36.43.16,72.86.04,109.29-.04,10.97-.47,11.28-11.36,11.41-13.42.16-26.84.04-40.62.04Z"/>
      <path class="cls-2" d="M278.36,446.99h-51.91c-.31-.43-.49-.56-.49-.69,0-23.41-.65-46.85.26-70.23.53-13.63,12.66-23.39,25.91-23.3,13.31.09,24.17,9.88,25.91,23.54.37,2.91.3,5.89.3,8.83.02,18.85.01,37.69.01,56.54v5.32Z"/>
      <path class="cls-1" d="M231.1,232.1c-.05-11.66,9.09-21.01,20.72-21.19,11.72-.18,21.36,9.41,21.3,21.16-.07,11.6-9.41,20.89-21.02,20.9-11.63,0-20.94-9.25-21-20.87Z"/>
    </g>
  </g>
</svg>